<svg xmlns="http://www.w3.org/2000/svg" width="32" height="32" viewBox="0 0 32 32" fill="none">
  <path fill-rule="evenodd" clip-rule="evenodd" d="M15.5534 31.1069C24.1459 31.1069 31.1069 24.1459 31.1069 15.5535C31.1069 6.96105 24.1459 0 15.5534 0C6.961 0 -6.10352e-05 6.96105 -6.10352e-05 15.5535C-6.10352e-05 24.1459 6.961 31.1069 15.5534 31.1069ZM16.9221 10.8252V13.1133H20.019L19.6665 16.2309H16.8876V24.1943H13.7423V16.2724H11.0878V13.0788H13.7838C13.7838 13.0788 13.7838 11.9589 13.7838 10.0648C13.7838 8.38508 15.6502 6.90576 16.9498 6.90576C17.1433 6.90576 20.019 6.93341 20.019 6.93341V9.75378C20.019 9.75378 18.3738 9.73995 17.959 9.73995C17.3369 9.73995 16.9221 10.2791 16.9221 10.8252Z" fill="white"/>
</svg>