<svg xmlns="http://www.w3.org/2000/svg" width="32" height="32" viewBox="0 0 32 32" fill="none">
  <path fill-rule="evenodd" clip-rule="evenodd" d="M16.4121 18.5305C14.7679 18.5305 13.4351 17.1976 13.4351 15.5534C13.4351 13.9092 14.7679 12.5764 16.4121 12.5764C18.0563 12.5764 19.3891 13.9092 19.3891 15.5534C19.3891 17.1976 18.0563 18.5305 16.4121 18.5305Z" fill="white"/>
  <path fill-rule="evenodd" clip-rule="evenodd" d="M21.6793 8.59075C21.3646 8.46852 20.8919 8.32305 20.0211 8.28342C19.0792 8.24044 18.7968 8.2312 16.4121 8.2312C14.0272 8.2312 13.7448 8.24022 12.8031 8.28317C11.9323 8.32305 11.4593 8.46852 11.1449 8.59075C10.7568 8.73385 10.4058 8.96218 10.1179 9.25882C9.82131 9.54693 9.59298 9.89771 9.44965 10.2857C9.32742 10.6004 9.18193 11.0734 9.14231 11.9442C9.09934 12.8859 9.09009 13.1683 9.09009 15.5532C9.09009 17.9378 9.09934 18.2203 9.14231 19.1622C9.18193 20.033 9.32742 20.5057 9.44965 20.8204C9.59298 21.2084 9.82106 21.5592 10.1177 21.8473C10.4058 22.144 10.7566 22.3723 11.1446 22.5154C11.4593 22.6379 11.9323 22.7834 12.8031 22.823C13.7448 22.8659 14.027 22.875 16.4119 22.875C18.797 22.875 19.0794 22.8659 20.0209 22.823C20.8916 22.7834 21.3646 22.6379 21.6793 22.5154C22.4582 22.2149 23.0739 21.5993 23.3743 20.8204C23.4965 20.5057 23.642 20.033 23.6819 19.1622C23.7249 18.2203 23.7339 17.9378 23.7339 15.5532C23.7339 13.1683 23.7249 12.8859 23.6819 11.9442C23.6423 11.0734 23.4968 10.6004 23.3743 10.2857C23.2312 9.89794 23.0029 9.54693 22.7062 9.25882C22.4181 8.96218 22.0674 8.73385 21.6793 8.59075ZM16.4122 10.9668C18.9449 10.9668 20.9983 13.0199 20.9983 15.5529C20.9983 18.0859 18.9449 20.139 16.4122 20.139C13.8792 20.139 11.8258 18.0859 11.8258 15.5529C11.8258 13.0199 13.8792 10.9668 16.4122 10.9668Z" fill="white"/>
  <path fill-rule="evenodd" clip-rule="evenodd" d="M21.1796 9.71387C21.7714 9.71387 22.2513 10.1938 22.2513 10.7856C22.2511 11.3775 21.7714 11.8574 21.1796 11.8574C20.5876 11.8574 20.1078 11.3775 20.1078 10.7856C20.1078 10.1938 20.5876 9.71387 21.1796 9.71387Z" fill="white"/>
  <path fill-rule="evenodd" clip-rule="evenodd" d="M16.4121 31.1069C25.0007 31.1069 31.9656 24.142 31.9656 15.5534C31.9656 6.96484 25.0007 0 16.4121 0C7.82349 0 0.858643 6.96484 0.858643 15.5534C0.858643 24.142 7.82349 31.1069 16.4121 31.1069ZM22.2622 24.0155C21.6942 24.2362 21.0449 24.3872 20.0944 24.4306C19.142 24.474 18.8378 24.4845 16.4123 24.4845C13.9866 24.4845 13.6826 24.474 12.7299 24.4306C11.7794 24.3872 11.1301 24.2362 10.5622 24.0155C9.96602 23.7912 9.42633 23.4397 8.98015 22.9853C8.52591 22.5393 8.17442 21.9994 7.95016 21.4035C7.72944 20.8356 7.57827 20.1862 7.53506 19.2358C7.49116 18.2831 7.48096 17.9789 7.48096 15.5534C7.48096 13.1279 7.49116 12.8237 7.53483 11.8713C7.57802 10.9205 7.72896 10.2714 7.94968 9.70329C8.17396 9.10736 8.52566 8.56744 8.98015 8.12151C9.42608 7.66703 9.966 7.31554 10.5619 7.09127C11.1301 6.87056 11.7792 6.71963 12.7299 6.67619C13.6823 6.63276 13.9866 6.62231 16.412 6.62231C18.8375 6.62231 19.1418 6.63276 20.0942 6.67642C21.0449 6.71963 21.694 6.87056 22.2622 7.09103C22.8581 7.31531 23.398 7.66703 23.8442 8.1215C24.2984 8.56767 24.6502 9.10736 24.8742 9.70329C25.0951 10.2714 25.2461 10.9205 25.2895 11.8713C25.3329 12.8237 25.3432 13.1279 25.3432 15.5534C25.3432 17.9789 25.3329 18.2831 25.2893 19.2355C25.2461 20.1862 25.0949 20.8353 24.8742 21.4035C24.4102 22.6032 23.4619 23.5515 22.2622 24.0155Z" fill="white"/>
</svg>