<svg xmlns="http://www.w3.org/2000/svg" width="32" height="32" viewBox="0 0 32 32" fill="none">
  <path fill-rule="evenodd" clip-rule="evenodd" d="M19.3929 15.5536L14.3335 12.6396V18.4675L19.3929 15.5536Z" fill="white"/>
  <path fill-rule="evenodd" clip-rule="evenodd" d="M16.2708 31.1069C24.8594 31.1069 31.8242 24.142 31.8242 15.5534C31.8242 6.96484 24.8594 0 16.2708 0C7.68213 0 0.717285 6.96484 0.717285 15.5534C0.717285 24.142 7.68213 31.1069 16.2708 31.1069ZM23.8759 21.9577C22.3549 22.358 16.2708 22.358 16.2708 22.358C16.2708 22.358 10.2026 22.358 8.66563 21.9418C7.8331 21.7177 7.17664 21.061 6.95237 20.2285C6.552 18.7236 6.552 15.5534 6.552 15.5534C6.552 15.5534 6.552 12.3993 6.95237 10.8783C7.17641 10.0458 7.84898 9.37319 8.66563 9.14915C10.1867 8.74878 16.2708 8.74878 16.2708 8.74878C16.2708 8.74878 22.3549 8.74878 23.8759 9.16505C24.7085 9.38909 25.3649 10.0458 25.5892 10.8783C26.0055 12.3993 25.9893 15.5693 25.9893 15.5693C25.9893 15.5693 25.9893 18.7236 25.5892 20.2446C25.3649 21.0772 24.7085 21.7336 23.8759 21.9577Z" fill="white"/>
</svg>