<svg width="134" height="20" viewBox="0 0 134 20" fill="none" xmlns="http://www.w3.org/2000/svg">
<path fill-rule="evenodd" clip-rule="evenodd" d="M19.7999 6.92673L13.5265 6.01512L10.7209 0.330495C10.621 0.128132 10.4149 3.05176e-05 10.1893 3.05176e-05C9.96359 3.05176e-05 9.75753 0.128132 9.65764 0.330495L6.8519 6.01512L0.578655 6.92673C0.355366 6.95914 0.169819 7.11558 0.100084 7.3302C0.0303293 7.54486 0.0885089 7.78047 0.250117 7.93797L4.78939 12.3628L3.71797 18.6109C3.67978 18.8334 3.77125 19.0581 3.9538 19.1908C4.05709 19.2658 4.1794 19.304 4.30234 19.304C4.39672 19.304 4.49141 19.2815 4.57812 19.2359L10.1892 16.2859L15.8001 19.2358C15.9999 19.3409 16.2419 19.3234 16.4245 19.1907C16.607 19.0581 16.6985 18.8333 16.6604 18.6109L15.5886 12.3628L20.1284 7.93793C20.29 7.78047 20.3482 7.54486 20.2784 7.33024C20.2087 7.11558 20.0232 6.95914 19.7999 6.92673Z" fill="#FFC400"/>
<path fill-rule="evenodd" clip-rule="evenodd" d="M48.223 6.92673L41.9497 6.01512L39.144 0.330495C39.0442 0.128132 38.8381 3.05176e-05 38.6124 3.05176e-05C38.3868 3.05176e-05 38.1807 0.128132 38.0808 0.330495L35.2751 6.01512L29.0018 6.92673C28.7785 6.95914 28.593 7.11558 28.5232 7.3302C28.4535 7.54486 28.5117 7.78047 28.6733 7.93797L33.2125 12.3628L32.1411 18.6109C32.1029 18.8334 32.1944 19.0581 32.377 19.1908C32.4802 19.2658 32.6026 19.304 32.7255 19.304C32.8199 19.304 32.9146 19.2815 33.0013 19.2359L38.6124 16.2859L44.2233 19.2358C44.4231 19.3409 44.6651 19.3234 44.8476 19.1907C45.0302 19.0581 45.1217 18.8333 45.0836 18.6109L44.0118 12.3628L48.5516 7.93793C48.7131 7.78047 48.7713 7.54486 48.7016 7.33024C48.6318 7.11558 48.4464 6.95914 48.223 6.92673Z" fill="#FFC400"/>
<path fill-rule="evenodd" clip-rule="evenodd" d="M76.6462 6.92673L70.3728 6.01512L67.5672 0.330495C67.4673 0.128132 67.2612 3.05176e-05 67.0356 3.05176e-05C66.8099 3.05176e-05 66.6038 0.128132 66.5039 0.330495L63.6982 6.01512L57.4249 6.92673C57.2016 6.95914 57.0161 7.11558 56.9464 7.3302C56.8766 7.54486 56.9348 7.78047 57.0964 7.93797L61.6357 12.3628L60.5643 18.6109C60.5261 18.8334 60.6175 19.0581 60.8001 19.1908C60.9034 19.2658 61.0257 19.304 61.1486 19.304C61.243 19.304 61.3377 19.2815 61.4244 19.2359L67.0355 16.2859L72.6464 19.2358C72.8462 19.3409 73.0882 19.3234 73.2708 19.1907C73.4533 19.0581 73.5448 18.8333 73.5067 18.6109L72.4349 12.3628L76.9747 7.93793C77.1363 7.78047 77.1945 7.54486 77.1247 7.33024C77.055 7.11558 76.8695 6.95914 76.6462 6.92673Z" fill="#FFC400"/>
<path fill-rule="evenodd" clip-rule="evenodd" d="M105.069 6.92673L98.7959 6.01512L95.9903 0.330495C95.8904 0.128132 95.6843 3.05176e-05 95.4587 3.05176e-05C95.233 3.05176e-05 95.0269 0.128132 94.927 0.330495L92.1213 6.01512L85.8481 6.92673C85.6248 6.95914 85.4392 7.11558 85.3695 7.3302C85.2997 7.54486 85.3579 7.78047 85.5195 7.93797L90.0588 12.3628L88.9874 18.6109C88.9492 18.8334 89.0407 19.0581 89.2232 19.1908C89.3265 19.2658 89.4488 19.304 89.5717 19.304C89.6661 19.304 89.7608 19.2815 89.8475 19.2359L95.4587 16.2859L101.07 19.2358C101.269 19.3409 101.511 19.3234 101.694 19.1907C101.876 19.0581 101.968 18.8333 101.93 18.6109L100.858 12.3628L105.398 7.93793C105.559 7.78047 105.618 7.54486 105.548 7.33024C105.478 7.11558 105.293 6.95914 105.069 6.92673Z" fill="#FFC400"/>
<path fill-rule="evenodd" clip-rule="evenodd" d="M133.492 6.92673L127.219 6.01512L124.413 0.330495C124.314 0.128132 124.107 3.05176e-05 123.882 3.05176e-05C123.656 3.05176e-05 123.45 0.128132 123.35 0.330495L120.544 6.01512L114.271 6.92673C114.048 6.95914 113.862 7.11558 113.793 7.3302C113.723 7.54486 113.781 7.78047 113.943 7.93797L118.482 12.3628L117.411 18.6109C117.372 18.8334 117.464 19.0581 117.646 19.1908C117.75 19.2658 117.872 19.304 117.995 19.304C118.089 19.304 118.184 19.2815 118.271 19.2359L123.882 16.2859L129.493 19.2358C129.692 19.3409 129.934 19.3234 130.117 19.1907C130.3 19.0581 130.391 18.8333 130.353 18.6109L129.281 12.3628L133.821 7.93793C133.983 7.78047 134.041 7.54486 133.971 7.33024C133.901 7.11558 133.716 6.95914 133.492 6.92673Z" fill="#FFC400"/>
</svg>
