<svg xmlns="http://www.w3.org/2000/svg" width="35" height="35" viewBox="0 0 35 35" fill="none">
  <path fill-rule="evenodd" clip-rule="evenodd" d="M13.8807 34.1034C4.77623 31.8329 -0.766267 22.6081 1.50522 13.5017C3.7747 4.39341 12.9988 -1.14947 22.1043 1.12101C31.212 3.39146 36.7544 12.617 34.4837 21.7247C32.2132 30.8319 22.989 36.3744 13.8807 34.1034Z" fill="#F7931A"/>
  <path fill-rule="evenodd" clip-rule="evenodd" d="M13.6474 15.5768C13.6963 15.5898 13.7564 15.6077 13.8219 15.634C13.7656 15.62 13.7086 15.5939 13.6474 15.5768C13.6409 15.575 13.6345 15.5733 13.6279 15.5718C13.6342 15.5734 13.6407 15.5751 13.6474 15.5768Z" fill="white"/>
  <path fill-rule="evenodd" clip-rule="evenodd" d="M22.5153 7.83618L20.6498 7.37134L19.906 10.3551C19.4156 10.2328 18.912 10.1176 18.4114 10.0034L19.1606 6.99982L17.2963 6.53491L16.5319 9.59852C16.126 9.50611 15.7274 9.4148 15.3407 9.3186L12.7704 8.6665L12.274 10.6589C12.274 10.6589 13.6581 10.9762 13.6289 10.9957C14.3844 11.1843 14.5209 11.6843 14.4983 12.0807L13.6279 15.5719L12.4048 20.4761C12.3124 20.7056 12.0781 21.0499 11.5499 20.9192C11.5687 20.9463 10.1941 20.5808 10.1941 20.5808L9.26794 22.7161L11.6955 23.3214C12.1472 23.4347 12.5897 23.5532 13.0255 23.6645L12.2537 26.7643L14.1169 27.2291L14.8813 24.1623C15.3904 24.3005 15.8844 24.4279 16.368 24.5481L15.6062 27.6003L17.4717 28.0653L18.2435 24.9714C21.4246 25.5734 23.8164 25.3307 24.8232 22.4534C25.6345 20.137 24.7828 18.8008 23.1093 17.9294C24.3282 17.6484 25.2457 16.8464 25.4905 15.1903C25.8288 12.928 24.1064 11.7119 21.7512 10.9006L22.5153 7.83618ZM16.5114 17.8105C17.7759 18.1262 21.8307 18.7509 21.2283 21.1668C20.6519 23.4833 16.7515 22.2311 15.4871 21.9171L16.5114 17.8105Z" fill="white"/>
  <path fill-rule="evenodd" clip-rule="evenodd" d="M17.9088 12.2068C18.9618 12.4693 22.353 12.9592 21.8053 15.157C21.2793 17.2641 18.0331 16.1936 16.9801 15.9311L17.9088 12.2068Z" fill="#F7931A"/>
</svg>