<svg xmlns="http://www.w3.org/2000/svg" width="34" height="35" viewBox="0 0 34 35" fill="none">
  <path fill-rule="evenodd" clip-rule="evenodd" d="M12.8846 34.1034C3.78013 31.8329 -1.76236 22.6081 0.509126 13.5017C2.77861 4.39341 12.0027 -1.14947 21.1082 1.12101C30.2159 3.39146 35.7583 12.617 33.4876 21.7247C31.2171 30.8319 21.9929 36.3744 12.8846 34.1034Z" fill="white"/>
  <path fill-rule="evenodd" clip-rule="evenodd" d="M16.8257 6.0131V22.7777L16.9958 22.9474L24.7776 18.3475L16.9958 5.4353L16.8257 6.0131Z" fill="#343434"/>
  <path fill-rule="evenodd" clip-rule="evenodd" d="M9.21381 18.3475L16.9958 22.9474V14.8103V5.4353L9.21381 18.3475Z" fill="#8C8C8C"/>
  <path fill-rule="evenodd" clip-rule="evenodd" d="M16.8999 24.5377V30.5095L16.9958 30.7893L24.7823 19.8232L16.9958 24.4208L16.8999 24.5377Z" fill="#3C3C3B"/>
  <path fill-rule="evenodd" clip-rule="evenodd" d="M16.9958 24.4208L9.21381 19.8232L16.9958 30.7893V24.4208Z" fill="#8C8C8C"/>
  <path fill-rule="evenodd" clip-rule="evenodd" d="M24.7776 18.3475L16.9958 14.8103V22.9474L24.7776 18.3475Z" fill="#141414"/>
  <path fill-rule="evenodd" clip-rule="evenodd" d="M16.9958 22.9474V14.8103L9.21381 18.3475L16.9958 22.9474Z" fill="#393939"/>
</svg>