<svg xmlns="http://www.w3.org/2000/svg" width="35" height="35" viewBox="0 0 35 35" fill="none">
  <path fill-rule="evenodd" clip-rule="evenodd" d="M17.9923 2.45215C26.365 2.45215 33.1524 9.23955 33.1524 17.6122C33.1524 25.9849 26.365 32.7723 17.9923 32.7723C9.61967 32.7723 2.83228 25.9849 2.83228 17.6122C2.83228 9.23955 9.61967 2.45215 17.9923 2.45215Z" fill="white"/>
  <path fill-rule="evenodd" clip-rule="evenodd" d="M17.9924 34.6123C27.3812 34.6123 34.9924 27.0011 34.9924 17.6123C35.0197 8.25074 27.354 0.639539 17.9924 0.612305C8.60353 0.612305 0.992371 8.22348 0.992371 17.6123C0.992371 27.0011 8.60353 34.6123 17.9924 34.6123ZM25.9778 24.1571C26.1045 24.1527 26.2277 24.1987 26.3204 24.2852C26.413 24.3717 26.4675 24.4915 26.4718 24.6181V24.7745L25.6485 27.6147C25.5737 27.8914 25.3174 28.0793 25.0311 28.0675H10.542L12.9706 19.7939L10.2538 20.6171L10.8713 18.7237L13.588 17.9004L17.0045 6.29268C17.0818 6.01785 17.3365 5.83111 17.6219 5.83989H21.2853C21.412 5.83546 21.5352 5.88154 21.6279 5.96801C21.7205 6.0545 21.775 6.17425 21.7793 6.30091V6.45733L18.8979 16.2539L21.6146 15.4307L21.0383 17.4065L18.2805 18.1886L16.5105 24.1571H25.9778Z" fill="#345D9D"/>
</svg>