<svg xmlns="http://www.w3.org/2000/svg" width="38" height="33" viewBox="0 0 38 33" fill="none">
  <path fill-rule="evenodd" clip-rule="evenodd" d="M1.02018 14.9387C0.967499 15.0468 0.991359 15.1767 1.07903 15.2591L19.2962 32.7155C19.4037 32.8186 19.5734 32.8186 19.6809 32.7155L37.898 15.2602C37.9857 15.1778 38.0096 15.0479 37.9569 14.9397L31.2117 0.771437C31.1672 0.674252 31.0701 0.612047 30.9632 0.612337H8.01603C7.90864 0.610985 7.81047 0.672868 7.76537 0.770343L1.02018 14.9387Z" fill="#50AF95"/>
  <path fill-rule="evenodd" clip-rule="evenodd" d="M17.1666 16.3935C12.5336 16.1897 9.07544 15.3832 9.07544 14.4176C9.07544 13.4519 12.5336 12.6465 17.1666 12.4395V15.5903C17.4696 15.6121 18.3371 15.6633 19.536 15.6633C20.9746 15.6633 21.695 15.6033 21.8247 15.5914V12.4416C26.4479 12.6476 29.8985 13.4541 29.8985 14.4176C29.8985 15.381 26.4534 16.1886 21.8291 16.3935C21.6983 16.4033 21.0226 16.4436 19.5153 16.4436C18.3164 16.4436 17.4652 16.4077 17.1666 16.3935ZM28.2811 9.29636V4.99683H10.7146V9.29636H17.1655V12.1148C11.9222 12.3556 7.979 13.3943 7.979 14.6389C7.979 15.8835 11.9222 16.9211 17.1655 17.163V26.198H21.8279V17.1597C27.0593 16.9189 30.9959 15.8813 30.9959 14.6378C30.9959 13.3943 27.0637 12.3578 21.8291 12.1158V9.29636H28.2811Z" fill="white"/>
</svg>