<svg width="168" height="55" viewBox="0 0 168 55" fill="none" xmlns="http://www.w3.org/2000/svg">
<g id="Gudy-logo">
<g id="Grupo 1">
<mask id="mask0_0_7239" style="mask-type:luminance" maskUnits="userSpaceOnUse" x="0" y="0" width="168" height="55">
<path id="Rect&#195;&#161;ngulo 3" fill-rule="evenodd" clip-rule="evenodd" d="M167.841 0V54.42H0V0H167.841Z" fill="white"/>
</mask>
<g mask="url(#mask0_0_7239)">
<path id="Trazado 1" fill-rule="evenodd" clip-rule="evenodd" d="M74.9611 21.6006C74.3901 21.4037 73.7802 21.3053 73.1307 21.3053C72.3136 21.3053 71.566 21.4604 70.8869 21.7702C70.2081 22.0803 69.6248 22.501 69.1378 23.0323C68.6503 23.5637 68.2687 24.1864 67.9933 24.8998C67.7181 25.6133 67.5801 26.3735 67.5801 27.1803C67.5801 27.9876 67.7181 28.7452 67.9933 29.4539C68.2687 30.1621 68.6503 30.7801 69.1378 31.3064C69.6248 31.833 70.2081 32.2487 70.8869 32.5537C71.566 32.8588 72.3136 33.0113 73.1307 33.0113C73.4752 33.0113 73.8171 32.9867 74.1565 32.9376C74.4959 32.8884 74.8577 32.8244 75.2415 32.7457V28.8779C75.2415 28.6913 75.2955 28.5363 75.4041 28.4131C75.5122 28.2902 75.6745 28.2287 75.8911 28.2287H79.906C80.0538 28.2287 80.2111 28.2873 80.3787 28.4055C80.5458 28.5237 80.6298 28.6813 80.6298 28.8779V36.0228C80.6298 36.2885 80.4868 36.505 80.2016 36.6723C79.739 36.9874 79.2272 37.2579 78.6662 37.4841C78.1053 37.7107 77.5197 37.8976 76.9099 38.0451C76.2995 38.1926 75.6818 38.3032 75.0569 38.3773C74.4317 38.451 73.8247 38.4879 73.2338 38.4879C72.1909 38.4879 71.1894 38.3549 70.2298 38.0892C69.2702 37.8236 68.3721 37.4448 67.536 36.9528C66.6993 36.4606 65.9389 35.8728 65.2553 35.1887C64.5711 34.5048 63.9834 33.7472 63.4914 32.9155C62.9992 32.0838 62.6204 31.1882 62.3544 30.2286C62.089 29.2693 61.9561 28.2678 61.9561 27.2247C61.9561 26.1818 62.089 25.1803 62.3544 24.2207C62.6204 23.2611 62.9992 22.3607 63.4914 21.5193C63.9834 20.6779 64.5711 19.9127 65.2553 19.2238C65.9389 18.5352 66.6993 17.9472 67.536 17.46C68.3721 16.9727 69.2702 16.5939 70.2298 16.3232C71.1894 16.0525 72.1909 15.9173 73.2338 15.9173C74.4149 15.9173 75.5296 16.0822 76.5774 16.4118C77.6256 16.7414 78.612 17.2161 79.5373 17.8363C79.7043 17.9346 79.8322 18.0651 79.9208 18.2274C80.0094 18.3897 79.9895 18.5743 79.8621 18.781L77.4706 22.2353C77.3423 22.3929 77.2144 22.4988 77.0867 22.5527C76.9588 22.6069 76.7864 22.5652 76.5702 22.4272C76.0679 22.0727 75.5318 21.7976 74.9611 21.6006Z" fill="white"/>
<path id="Trazado 2" fill-rule="evenodd" clip-rule="evenodd" d="M90.8521 31.2748C91.0544 31.7824 91.3209 32.1959 91.6508 32.516C91.9813 32.8362 92.366 33.07 92.8052 33.2178C93.2437 33.3655 93.7002 33.4393 94.1734 33.4393C94.6662 33.4393 95.1322 33.3533 95.5708 33.1806C96.01 33.0085 96.3946 32.7524 96.7246 32.4124C97.0551 32.0727 97.3162 31.6517 97.5084 31.1494C97.7012 30.6471 97.7973 30.0708 97.7973 29.4207V16.8917C97.7973 16.7146 97.8588 16.5618 97.9817 16.4339C98.1049 16.3059 98.2694 16.2419 98.4762 16.2419H102.787C103.013 16.2419 103.19 16.3081 103.318 16.4411C103.446 16.5738 103.51 16.7241 103.51 16.8914V29.3355C103.51 31.0578 103.257 32.5046 102.75 33.6754C102.243 34.8467 101.561 35.789 100.705 36.5022C99.8489 37.2159 98.8575 37.7275 97.7308 38.0375C96.6036 38.3476 95.4205 38.5027 94.1807 38.5027C92.9406 38.5027 91.7548 38.3426 90.6231 38.0227C89.4911 37.7032 88.4974 37.1813 87.6412 36.4581C86.7849 35.7348 86.1033 34.79 85.5965 33.6237C85.0898 32.4576 84.8364 31.0282 84.8364 29.3355V16.8914C84.8364 16.7241 84.8928 16.5738 85.0054 16.4411C85.1183 16.3081 85.2585 16.2419 85.4253 16.2419H89.8426C89.9897 16.2419 90.1443 16.3034 90.306 16.4266C90.4678 16.5498 90.5493 16.7048 90.5493 16.8917V29.4207C90.5493 30.1496 90.6502 30.7675 90.8521 31.2748Z" fill="white"/>
<path id="Exclude" fill-rule="evenodd" clip-rule="evenodd" d="M125.239 32.8266C124.747 33.6387 124.159 34.3743 123.475 35.0336C122.791 35.6931 122.033 36.2541 121.202 36.7164C120.37 37.1791 119.472 37.5358 118.508 37.7867C117.543 38.0375 116.545 38.1632 115.511 38.1632H108.234C108.056 38.1632 107.899 38.1239 107.761 38.0451C107.623 37.9663 107.555 37.7993 107.555 37.5431V16.921C107.555 16.7143 107.611 16.547 107.724 16.419C107.837 16.2914 108.007 16.2271 108.234 16.2271H115.511C116.545 16.2271 117.541 16.355 118.5 16.611C119.46 16.8671 120.355 17.2308 121.187 17.7032C122.019 18.1756 122.779 18.7419 123.468 19.4009C124.157 20.0602 124.745 20.7986 125.232 21.6151C125.719 22.4322 126.097 23.3128 126.368 24.2576C126.639 25.2024 126.774 26.1913 126.774 27.2246C126.774 28.2678 126.642 29.2595 126.376 30.1993C126.11 31.139 125.731 32.0148 125.239 32.8266ZM114.507 32.8783C114.734 32.8783 114.955 32.871 115.171 32.8562C115.388 32.8414 115.604 32.8244 115.821 32.8046C116.559 32.7456 117.248 32.566 117.888 32.266C118.528 31.9656 119.086 31.572 119.563 31.0848C120.04 30.5976 120.414 30.0244 120.685 29.3651C120.956 28.7058 121.091 27.9876 121.091 27.2098C121.091 26.3832 120.936 25.6231 120.626 24.9294C120.316 24.2355 119.895 23.6354 119.364 23.1281C118.833 22.6214 118.21 22.2277 117.497 21.9475C116.783 21.6668 116.023 21.5266 115.216 21.5266H113.267V32.8783H114.507Z" fill="white"/>
<path id="Trazado 4" fill-rule="evenodd" clip-rule="evenodd" d="M130.915 16.4339C131.028 16.3157 131.163 16.252 131.321 16.2419H145.448C145.674 16.2419 145.844 16.3059 145.957 16.4336C146.07 16.561 146.127 16.7325 146.127 16.9484V20.5988C146.127 20.7659 146.068 20.9251 145.95 21.0771C145.832 21.2293 145.659 21.3053 145.433 21.3053H136.458V25.8815H143.086C143.272 25.8815 143.43 25.9332 143.558 26.0365C143.686 26.1399 143.75 26.3048 143.75 26.5307V30.059C143.75 30.2264 143.693 30.3862 143.58 30.5387C143.467 30.6915 143.312 30.7675 143.115 30.7675H136.458V37.5286C136.458 37.9515 136.232 38.1633 135.779 38.1633H131.277C130.922 38.1141 130.745 37.9074 130.745 37.5434V16.9211C130.745 16.7143 130.802 16.552 130.915 16.4339Z" fill="white"/>
<path id="Trazado 5" fill-rule="evenodd" clip-rule="evenodd" d="M161.376 16.6995C161.435 16.5814 161.484 16.4953 161.523 16.4411C161.563 16.3872 161.602 16.3478 161.641 16.3229C161.68 16.2987 161.722 16.2838 161.767 16.2788C161.811 16.2741 161.863 16.2618 161.922 16.2419H167.605C167.674 16.2419 167.731 16.264 167.775 16.3081C167.819 16.3526 167.841 16.4042 167.841 16.4635C167.841 16.5716 167.772 16.6948 167.635 16.8325L160.638 29.2173V37.4693C160.638 37.932 160.412 38.163 159.96 38.163H155.543C155.347 38.163 155.195 38.1018 155.087 37.9786C154.978 37.8557 154.925 37.6859 154.925 37.4693V29.188L147.942 16.8325C147.815 16.7046 147.751 16.5814 147.751 16.4635C147.751 16.4042 147.77 16.3526 147.81 16.3081C147.849 16.264 147.903 16.2419 147.972 16.2419H153.655C153.724 16.2618 153.778 16.2741 153.818 16.2788C153.857 16.2838 153.896 16.2987 153.936 16.3229C153.975 16.3478 154.014 16.3872 154.054 16.4411C154.093 16.4953 154.147 16.5814 154.216 16.6995L157.811 24.3314L161.376 16.6995Z" fill="white"/>
<path id="Exclude_2" fill-rule="evenodd" clip-rule="evenodd" d="M27.2098 53.3738C41.6597 53.3738 53.3738 41.66 53.3738 27.2102C53.3738 12.76 41.6597 1.0462 27.2098 1.0462C12.76 1.0462 1.0459 12.76 1.0459 27.2102C1.0459 41.66 12.76 53.3738 27.2098 53.3738ZM23.7429 46.7989C33.0322 46.4522 41.2981 40.506 44.5719 31.7939V41.1329C40.4732 44.5117 34.7681 47.1148 27.7336 47.1148C26.3608 47.1148 25.028 47.0064 23.7429 46.7989Z" fill="white"/>
<path id="Trazado 6" fill-rule="evenodd" clip-rule="evenodd" d="M40.1669 27.0258C39.9797 28.0938 39.8049 29.1637 39.628 30.2337C39.6143 30.3161 39.6115 30.4005 39.6009 30.5122C40.4862 29.8786 41.362 29.252 42.2464 28.6193C39.6959 38.5563 29.8915 45.0828 19.5862 43.3666C16.4423 42.8431 13.537 41.6047 11.0518 39.7852C8.25682 36.4114 6.63037 32.0473 6.63037 27.0641V26.9532C6.63037 17.2513 13.164 9.34657 22.6195 7.30499C15.6992 10.9618 10.8409 18.0184 10.2847 26.2369C9.47202 25.4189 8.66496 24.6068 7.85035 23.7869C7.84557 23.89 7.83889 23.9671 7.83889 24.0439C7.83832 25.1013 7.84337 26.1589 7.83415 27.2163C7.83244 27.4202 7.89057 27.5655 8.03638 27.7099C9.18817 28.8511 10.3319 30.0004 11.4789 31.1466C11.5907 31.2581 11.708 31.3637 11.8203 31.4696C13.0758 30.2158 14.4186 28.8983 15.6674 27.6381C15.7442 27.5605 15.7948 27.4211 15.7956 27.3096C15.8048 26.2254 15.8015 25.1413 15.8004 24.0568C15.8004 23.9733 15.7892 23.8897 15.7813 23.7777C15.012 24.5479 14.2513 25.3097 13.4828 26.0793C14.3667 15.8584 22.967 7.81064 33.4128 7.81064C34.033 7.81064 34.6482 7.84025 35.2577 7.89555C38.3142 8.85655 40.8969 10.4123 43.2426 12.4413L36.9283 20.0295C34.159 17.703 31.3894 16.3738 27.5675 16.3738C21.9734 16.3738 17.6528 21.0819 17.6528 27.0085V27.1194C17.6528 33.3784 22.0287 37.865 28.1768 37.865C30.7802 37.865 32.7742 37.311 34.3805 36.2586V31.5506H26.7367V23.6852L44.5721 23.6992C43.1625 24.7052 41.7517 25.7097 40.3473 26.723C40.2588 26.7867 40.1862 26.9163 40.1669 27.0258Z" fill="white"/>
<path id="Exclude_3" fill-rule="evenodd" clip-rule="evenodd" d="M27.2098 0C42.2134 0 54.4197 12.2063 54.4197 27.2101C54.4197 42.2137 42.2134 54.42 27.2098 54.42C12.2063 54.42 -6.10352e-05 42.2137 -6.10352e-05 27.2101C-6.10352e-05 12.2063 12.2063 0 27.2098 0ZM27.2098 52.3279C41.0599 52.3279 52.3276 41.0599 52.3276 27.2102C52.3276 13.3604 41.0599 2.09241 27.2098 2.09241C13.3597 2.09241 2.09204 13.3604 2.09204 27.2102C2.09204 41.0599 13.3597 52.3279 27.2098 52.3279Z" fill="#CCCCCC"/>
</g>
</g>
<g id="Grupo 9">
<g id="Grupo 4">
<g id="Grupo 3">
<mask id="mask1_0_7239" style="mask-type:luminance" maskUnits="userSpaceOnUse" x="0" y="0" width="55" height="55">
<path id="Rect&#195;&#161;ngulo 4" fill-rule="evenodd" clip-rule="evenodd" d="M54.42 0V54.42H0V0H54.42Z" fill="white"/>
</mask>
<g mask="url(#mask1_0_7239)">
<path id="Trazado 8" fill-rule="evenodd" clip-rule="evenodd" d="M27.21 53.3739C12.7602 53.3739 1.04614 41.66 1.04614 27.2101C1.04614 12.7601 12.7602 1.04626 27.21 1.04626C41.6598 1.04626 53.3738 12.7601 53.3738 27.2101C53.3738 41.66 41.6598 53.3739 27.21 53.3739Z" fill="#1F0054"/>
<path id="Exclude_4" fill-rule="evenodd" clip-rule="evenodd" d="M0.0300293 27.2101C0.0306816 12.1986 12.1984 0.0308037 27.21 0.0301514C42.2215 0.0308037 54.3892 12.1986 54.3899 27.2101C54.3893 42.2216 42.2214 54.3894 27.21 54.39C12.1984 54.3894 0.0306816 42.2216 0.0300293 27.2101ZM2.06226 27.2101C2.08745 41.0985 13.3216 52.3326 27.21 52.3578C41.0982 52.3326 52.3326 41.0985 52.3577 27.2101C52.3326 13.3217 41.0982 2.08742 27.21 2.06238C13.3216 2.08742 2.08745 13.3217 2.06226 27.2101Z" fill="url(#paint0_linear_0_7239)"/>
</g>
</g>
</g>
<g id="Grupo 6">
<g id="Grupo 5">
<mask id="mask2_0_7239" style="mask-type:luminance" maskUnits="userSpaceOnUse" x="6" y="7" width="39" height="37">
<path id="Trazado 10" fill-rule="evenodd" clip-rule="evenodd" d="M6.63049 27.064C6.63049 32.0471 8.25694 36.4113 11.0517 39.7852C13.5371 41.6049 16.4422 42.8431 19.5864 43.3666C29.8916 45.0828 39.696 38.5563 42.2465 28.6194C41.362 29.2521 40.4864 29.8786 39.6009 30.5122C39.6116 30.4006 39.6145 30.3162 39.628 30.2337C39.805 29.164 39.9797 28.0937 40.167 27.0258C40.1862 26.9162 40.2589 26.7868 40.3473 26.723C41.7517 25.7097 43.1624 24.7051 44.5722 23.6992L26.7368 23.6852V31.5506H34.3805V36.2586C32.7742 37.311 30.7802 37.8649 28.1769 37.8649C22.0287 37.8649 17.6529 33.3784 17.6529 27.1194V27.0087C17.6529 21.0819 21.9733 16.3739 27.5676 16.3739C31.3895 16.3739 34.159 17.7032 36.9283 20.0295L43.2427 12.4413C40.8969 10.4124 38.3142 8.85643 35.2578 7.89566C34.6482 7.8401 34.033 7.81074 33.413 7.81074C22.967 7.81074 14.3667 15.8585 13.4828 26.0791C14.2514 25.3098 15.0121 24.548 15.7814 23.7776C15.7893 23.8896 15.8004 23.9733 15.8004 24.0569C15.8016 25.1412 15.805 26.2254 15.7956 27.3097C15.7947 27.421 15.7442 27.5605 15.6675 27.638C14.4187 28.8983 13.1621 30.1507 11.9067 31.4045C11.7944 31.2986 11.5906 31.2581 11.4791 31.1466C10.332 30.0005 9.1883 28.8511 8.03635 27.7099C7.89058 27.5655 7.83245 27.4202 7.83412 27.2162C7.84326 26.1588 7.83822 25.1014 7.83886 24.044C7.83897 23.967 7.84565 23.8901 7.8504 23.7869C8.66497 24.6068 9.47187 25.4189 10.2847 26.237C10.8408 18.0184 15.6992 10.9619 22.6197 7.30518C13.1641 9.34656 6.63049 17.2513 6.63049 26.9532V27.064Z" fill="white"/>
</mask>
<g mask="url(#mask2_0_7239)">
<path id="Rect&#195;&#161;ngulo 5" fill-rule="evenodd" clip-rule="evenodd" d="M44.5722 7.30518V45.0827H6.63049V7.30518H44.5722Z" fill="url(#paint1_linear_0_7239)"/>
</g>
</g>
</g>
<g id="Grupo 8">
<g id="Grupo 7">
<mask id="mask3_0_7239" style="mask-type:luminance" maskUnits="userSpaceOnUse" x="23" y="31" width="22" height="17">
<path id="Trazado 11" fill-rule="evenodd" clip-rule="evenodd" d="M27.7337 47.115C34.7682 47.115 40.4733 44.5117 44.5722 41.1329V31.7938C41.2984 40.5058 33.0324 46.4521 23.743 46.7988C25.0283 47.0064 26.3609 47.115 27.7337 47.115Z" fill="white"/>
</mask>
<g mask="url(#mask3_0_7239)">
<path id="Rect&#195;&#161;ngulo 6" fill-rule="evenodd" clip-rule="evenodd" d="M44.5722 31.7938V47.115H23.743V31.7938H44.5722Z" fill="url(#paint2_linear_0_7239)"/>
</g>
</g>
</g>
</g>
</g>
<defs>
<linearGradient id="paint0_linear_0_7239" x1="7.70056e-05" y1="54.4765" x2="0.112982" y2="54.4765" gradientUnits="userSpaceOnUse">
<stop stop-color="#1D71B8"/>
<stop offset="4.1024e-07" stop-color="#1D71B8"/>
<stop offset="1" stop-color="#27E19D"/>
</linearGradient>
<linearGradient id="paint1_linear_0_7239" x1="-1.12293e-05" y1="54.4741" x2="0.112903" y2="54.4741" gradientUnits="userSpaceOnUse">
<stop stop-color="#1D71B8"/>
<stop offset="4.1024e-07" stop-color="#1D71B8"/>
<stop offset="0.0952325" stop-color="#1E80B4"/>
<stop offset="0.374829" stop-color="#22AAAA"/>
<stop offset="0.62856" stop-color="#24C8A2"/>
<stop offset="0.845463" stop-color="#26DA9E"/>
<stop offset="1" stop-color="#27E19D"/>
</linearGradient>
<linearGradient id="paint2_linear_0_7239" x1="-9.63695e-06" y1="54.4615" x2="0.112906" y2="54.4615" gradientUnits="userSpaceOnUse">
<stop stop-color="#1D71B8"/>
<stop offset="4.1024e-07" stop-color="#1D71B8"/>
<stop offset="0.0952325" stop-color="#1E80B4"/>
<stop offset="0.374829" stop-color="#22AAAA"/>
<stop offset="0.62856" stop-color="#24C8A2"/>
<stop offset="0.845463" stop-color="#26DA9E"/>
<stop offset="1" stop-color="#27E19D"/>
</linearGradient>
</defs>
</svg>
