<svg width="32" height="32" viewBox="0 0 32 32" fill="none" xmlns="http://www.w3.org/2000/svg">
<g id="Shop-icon">
<path id="carrito-de-compras" fill-rule="evenodd" clip-rule="evenodd" d="M16 32C7.16342 32 0 24.8366 0 16C0 7.16342 7.16342 0 16 0C24.8366 0 32 7.16342 32 16C32 24.8366 24.8366 32 16 32Z" fill="white"/>
<g id="Group 4">
<path id="carrito-de-compras_2" fill-rule="evenodd" clip-rule="evenodd" d="M21.9494 19.0728C22.4322 18.8415 22.7336 18.4255 23.1059 17.8634C23.1284 17.8288 23.149 17.7919 23.1639 17.7539L26.2647 10.2158C26.3452 10.0202 26.3228 9.79769 26.2049 9.62156C26.087 9.44588 25.8886 9.33975 25.6771 9.33975H9.19057L8.77888 7.49625C8.71337 7.20638 8.45512 7 8.15949 7H6.63438C6.28443 7 6 7.28406 6 7.63475C6 7.98543 6.28443 8.2695 6.63438 8.2695H7.6505L9.9897 18.7369V19.9707C9.9897 21.0167 10.8411 21.8682 11.8873 21.8682C11.6571 22.1673 11.5803 22.5414 11.5803 22.9472C11.5803 23.9236 12.3756 24.7181 13.3525 24.7181C14.3294 24.7181 15.1228 23.9236 15.1228 22.9472C15.1228 22.5414 14.9862 22.1672 14.7542 21.8682H19.4119C19.1818 22.1673 19.0451 22.5414 19.0451 22.9472C19.0451 23.9236 19.8386 24.7181 20.8154 24.7181C21.7923 24.7181 22.5857 23.9236 22.5857 22.9472C22.5857 22.5414 22.4491 22.1672 22.219 21.8682H23.5046C23.8546 21.8682 24.139 21.5838 24.139 21.2329C24.139 20.8828 23.8546 20.5987 23.5046 20.5987H11.8872C11.541 20.5987 11.2603 20.3168 11.2603 19.9707V19.3015H20.2091C20.995 19.3015 21.5041 19.286 21.9494 19.0728Z" fill="#1F0054"/>
<path id="carrito-de-compras_3" fill-rule="evenodd" clip-rule="evenodd" d="M13.6624 13.4962H19.5815C19.9464 13.4962 20.2458 13.1975 20.2458 12.833C20.2458 12.4688 19.9464 12.17 19.5815 12.17H13.6624C13.2975 12.17 13 12.4689 13 12.833C13 13.1976 13.2976 13.4962 13.6624 13.4962Z" fill="white"/>
<path id="carrito-de-compras_4" fill-rule="evenodd" clip-rule="evenodd" d="M13.6624 16.4713H19.5815C19.9464 16.4713 20.2458 16.1729 20.2458 15.8084C20.2458 15.4441 19.9464 15.1454 19.5815 15.1454L13.6624 15.1454C13.2975 15.1454 13 15.4441 13 15.8084C13 16.173 13.2976 16.4713 13.6624 16.4713Z" fill="white"/>
</g>
</g>
</svg>
