<svg width="32" height="32" viewBox="0 0 32 32" fill="none" xmlns="http://www.w3.org/2000/svg">
<g id="User-icon">
<path id="Elipse 3" fill-rule="evenodd" clip-rule="evenodd" d="M16 0C24.8365 0 32 7.16346 32 16C32 24.8365 24.8365 32 16 32C7.16346 32 0 24.8365 0 16C0 7.16346 7.16346 0 16 0Z" fill="white"/>
<g id="usuario">
<g id="Grupo 56">
<g id="Grupo 55">
<path id="Trazado 54" fill-rule="evenodd" clip-rule="evenodd" d="M12.2932 11.7859C12.2932 13.8344 13.9515 15.4928 16.0001 15.4928C18.0486 15.4928 19.7069 13.8344 19.7069 11.7859C19.7069 9.73742 18.0486 8.0791 16.0001 8.0791C13.9515 8.0791 12.2932 9.73742 12.2932 11.7859Z" fill="#1F0054"/>
</g>
</g>
<g id="Grupo 58">
<g id="Grupo 57">
<path id="Trazado 55" fill-rule="evenodd" clip-rule="evenodd" d="M14.5563 15.922C11.6494 15.922 9.2887 18.2827 9.2887 21.1896V23.3357C9.2887 23.6673 9.54233 23.921 9.87399 23.921H22.126C22.4577 23.921 22.7113 23.6673 22.7113 23.3357V21.1896C22.7113 18.2827 20.3507 15.922 17.4437 15.922H14.5563Z" fill="#1F0054"/>
</g>
</g>
</g>
</g>
</svg>
