<svg width="32" height="32" viewBox="0 0 32 32" fill="none" xmlns="http://www.w3.org/2000/svg">
<g id="Wallet-icon">
<path id="Exclude" fill-rule="evenodd" clip-rule="evenodd" d="M16 32C24.8365 32 32 24.8365 32 16C31.9968 7.16477 24.8352 0.003168 16 0C7.16346 0 0 7.16346 0 16C0 24.8365 7.16346 32 16 32ZM22.1012 18.2826L22.1012 17.92C22.1033 17.2139 22.6751 16.642 23.3812 16.64L25.5999 16.64V19.5626H23.3812C22.6751 19.5606 22.1033 18.9887 22.1012 18.2826Z" fill="white"/>
<path id="Exclude_2" fill-rule="evenodd" clip-rule="evenodd" d="M20.8214 17.92V18.2827C20.8255 19.6948 21.9692 20.8386 23.3814 20.8427H25.6V22.496C25.6005 24.0102 24.3729 25.2378 22.8587 25.2373H9.8347C7.9404 25.231 6.40632 23.697 6.40002 21.8027V9.50399C6.39956 7.98981 7.62717 6.7622 9.14136 6.76266H19.6374C19.9908 6.76266 20.2774 7.04921 20.2774 7.40266C20.2774 7.75612 19.9908 8.04266 19.6374 8.04266H9.14136C8.33429 8.04266 7.68003 8.69693 7.68003 9.50399C7.68003 10.3111 8.33429 10.9653 9.14136 10.9653H23.68C24.1893 10.965 24.6779 11.1672 25.038 11.5273C25.3982 11.8875 25.6003 12.376 25.6 12.8853V15.36H23.3814C21.9676 15.3604 20.8217 16.5063 20.8214 17.92ZM9.88805 10.144C9.53459 10.144 9.24805 9.85751 9.24805 9.50405C9.24805 9.15058 9.53459 8.86404 9.88805 8.86404L19.6374 8.86405C19.9904 8.86507 20.2764 9.15101 20.2774 9.50405C20.2763 9.85707 19.9904 10.143 19.6374 10.144H9.88805Z" fill="#1F0054"/>
</g>
</svg>
