<svg xmlns="http://www.w3.org/2000/svg" width="227" height="71" viewBox="0 0 227 71" fill="none">
  <path fill-rule="evenodd" clip-rule="evenodd" d="M97.4381 27.8304C96.6425 27.5561 95.7924 27.4191 94.8871 27.4191C93.7484 27.4191 92.7067 27.635 91.7601 28.0671C90.8139 28.4991 90.0012 29.0854 89.3224 29.826C88.6433 30.5665 88.1115 31.4342 87.7278 32.4284C87.3439 33.4232 87.1518 34.4823 87.1518 35.6069C87.1518 36.7318 87.3439 37.7877 87.7278 38.7751C88.1115 39.7625 88.6433 40.6237 89.3224 41.357C90.0012 42.0907 90.8139 42.6704 91.7601 43.0953C92.7067 43.5205 93.7484 43.7332 94.8871 43.7332C95.3672 43.7332 95.8439 43.6991 96.3166 43.6302C96.79 43.5617 97.2943 43.4727 97.8289 43.3627V37.9725C97.8289 37.7125 97.9041 37.4963 98.0553 37.3246C98.2063 37.1536 98.4323 37.0676 98.734 37.0676H104.33C104.536 37.0676 104.755 37.1498 104.988 37.3143C105.221 37.479 105.338 37.6986 105.338 37.9725V47.9298C105.338 48.3002 105.139 48.6022 104.741 48.835C104.097 49.2742 103.384 49.6511 102.602 49.9666C101.82 50.2822 101.004 50.5425 100.154 50.7483C99.3033 50.954 98.4427 51.1083 97.5719 51.2113C96.7005 51.3141 95.8543 51.3655 95.0311 51.3655C93.5774 51.3655 92.1818 51.1801 90.8446 50.8099C89.5073 50.4397 88.2555 49.9117 87.0903 49.2259C85.9241 48.5403 84.8646 47.721 83.9117 46.7676C82.9583 45.8142 82.139 44.7587 81.4536 43.5994C80.7675 42.4407 80.2396 41.1924 79.8692 39.855C79.499 38.5179 79.3138 37.1225 79.3138 35.6686C79.3138 34.2151 79.499 32.8194 79.8692 31.4822C80.2396 30.145 80.7675 28.8901 81.4536 27.7173C82.139 26.5446 82.9583 25.4785 83.9117 24.5184C84.8646 23.5585 85.9241 22.7388 87.0903 22.0599C88.2555 21.381 89.5073 20.853 90.8446 20.4757C92.1818 20.0988 93.5774 19.9102 95.0311 19.9102C96.6768 19.9102 98.2304 20.1398 99.691 20.5992C101.151 21.0588 102.526 21.7204 103.816 22.5846C104.049 22.7217 104.227 22.903 104.35 23.1295C104.474 23.3559 104.446 23.6131 104.268 23.9012L100.935 28.715C100.757 28.9347 100.579 29.0821 100.401 29.1573C100.222 29.2331 99.9818 29.1747 99.6806 28.9827C98.9808 28.4888 98.2333 28.1049 97.4381 27.8304Z" fill="white"/>
  <path fill-rule="evenodd" clip-rule="evenodd" d="M119.585 41.3132C119.866 42.0206 120.238 42.5967 120.698 43.043C121.158 43.4891 121.694 43.8151 122.306 44.021C122.918 44.2269 123.554 44.3299 124.213 44.3299C124.9 44.3299 125.549 44.21 126.161 43.9693C126.773 43.7293 127.309 43.3725 127.769 42.8987C128.229 42.4253 128.593 41.8386 128.861 41.1384C129.129 40.4384 129.264 39.6352 129.264 38.7293V21.2686C129.264 21.0215 129.349 20.8087 129.521 20.6302C129.692 20.4518 129.922 20.3628 130.21 20.3628H136.217C136.532 20.3628 136.779 20.4552 136.958 20.6405C137.136 20.8253 137.225 21.0347 137.225 21.2679V38.6107C137.225 41.0108 136.872 43.027 136.166 44.6588C135.459 46.2911 134.509 47.6041 133.316 48.5985C132.123 49.5932 130.741 50.306 129.171 50.738C127.6 51.1703 125.951 51.3863 124.223 51.3863C122.495 51.3863 120.842 51.1632 119.265 50.7175C117.688 50.2721 116.303 49.5448 115.11 48.5369C113.916 47.5288 112.966 46.212 112.26 44.5869C111.554 42.9617 111.201 40.9696 111.201 38.6107V21.2679C111.201 21.0347 111.279 20.8253 111.437 20.6405C111.594 20.4552 111.789 20.3628 112.021 20.3628H118.178C118.383 20.3628 118.598 20.4484 118.823 20.6202C119.049 20.7916 119.163 21.0078 119.163 21.2686V38.7293C119.163 39.7449 119.303 40.6064 119.585 41.3132Z" fill="white"/>
  <path fill-rule="evenodd" clip-rule="evenodd" d="M167.508 43.4753C166.822 44.6066 166.002 45.6321 165.049 46.551C164.096 47.4699 163.04 48.2517 161.881 48.8961C160.722 49.5408 159.471 50.038 158.126 50.3875C156.782 50.7373 155.39 50.9122 153.95 50.9122H143.808C143.561 50.9122 143.341 50.8577 143.15 50.7476C142.957 50.6381 142.862 50.4052 142.862 50.0484V21.3084C142.862 21.0202 142.94 20.7871 143.098 20.6088C143.256 20.4308 143.492 20.3413 143.808 20.3413H153.95C155.39 20.3413 156.779 20.5197 158.116 20.8761C159.453 21.2331 160.701 21.7403 161.86 22.3985C163.019 23.0569 164.079 23.8459 165.039 24.7644C165.999 25.6835 166.818 26.7122 167.497 27.8505C168.176 28.9888 168.704 30.2162 169.081 31.5328C169.458 32.8494 169.647 34.2278 169.647 35.6679C169.647 37.1218 169.462 38.5037 169.092 39.8135C168.721 41.1232 168.193 42.3438 167.508 43.4753ZM152.552 43.5469C152.866 43.5469 153.175 43.5367 153.477 43.5162C153.779 43.4956 154.08 43.4717 154.382 43.4443C155.411 43.362 156.371 43.1116 157.262 42.6932C158.154 42.275 158.932 41.7264 159.597 41.0475C160.262 40.3687 160.784 39.5697 161.161 38.6506C161.538 37.7319 161.727 36.7307 161.727 35.6472C161.727 34.495 161.51 33.4355 161.078 32.4687C160.647 31.5018 160.06 30.6653 159.32 29.9586C158.579 29.2525 157.712 28.7037 156.717 28.3131C155.723 27.9221 154.663 27.7266 153.539 27.7266H150.823V43.5469H152.552Z" fill="white"/>
  <path fill-rule="evenodd" clip-rule="evenodd" d="M175.417 20.63C175.575 20.4652 175.763 20.3764 175.983 20.3625H195.671C195.986 20.3625 196.223 20.4517 196.381 20.6296C196.538 20.8071 196.617 21.0461 196.617 21.3473V26.4346C196.617 26.6671 196.535 26.8893 196.371 27.1012C196.206 27.3134 195.966 27.4191 195.651 27.4191H183.142V33.7964H192.38C192.64 33.7964 192.859 33.8687 193.038 34.0125C193.216 34.1565 193.305 34.3864 193.305 34.7017V39.6184C193.305 39.8519 193.226 40.0746 193.068 40.2871C192.911 40.4999 192.695 40.606 192.42 40.606H183.142V50.0284C183.142 50.618 182.827 50.9127 182.196 50.9127H175.922C175.428 50.8443 175.181 50.5563 175.181 50.0489V21.3088C175.181 21.0208 175.26 20.7946 175.417 20.63Z" fill="#0BEBAA"/>
  <path fill-rule="evenodd" clip-rule="evenodd" d="M217.869 21.0005C217.951 20.8357 218.019 20.7159 218.074 20.6405C218.129 20.5654 218.184 20.5103 218.239 20.4757C218.293 20.4418 218.352 20.4213 218.414 20.4141C218.476 20.4075 218.547 20.3904 218.63 20.3628H226.55C226.646 20.3628 226.725 20.3934 226.787 20.4552C226.848 20.517 226.879 20.5892 226.879 20.6715C226.879 20.8223 226.783 20.9937 226.591 21.1858L216.84 38.4462V49.946C216.84 50.5909 216.525 50.9131 215.896 50.9131H209.74C209.467 50.9131 209.255 50.8275 209.104 50.6559C208.954 50.4844 208.878 50.2478 208.878 49.946V38.4051L199.148 21.1858C198.969 21.0076 198.88 20.8357 198.88 20.6715C198.88 20.5892 198.907 20.517 198.963 20.4552C199.017 20.3934 199.093 20.3628 199.189 20.3628H207.109C207.205 20.3904 207.281 20.4075 207.336 20.4141C207.39 20.4213 207.445 20.4418 207.5 20.4757C207.555 20.5103 207.61 20.5654 207.664 20.6405C207.72 20.7159 207.795 20.8357 207.891 21.0005L212.9 31.6365L217.869 21.0005Z" fill="#0BEBAA"/>
  <mask id="mask0_0_7072" style="mask-type:luminance" maskUnits="userSpaceOnUse" x="8" y="6" width="50" height="48">
    <path fill-rule="evenodd" clip-rule="evenodd" d="M8.46338 31.9899C8.46338 38.3798 10.5492 43.9759 14.1327 48.3021C17.3196 50.6356 21.0448 52.2233 25.0766 52.8944C38.2908 55.0951 50.8625 46.7263 54.133 33.9842C52.9991 34.7957 51.8761 35.5992 50.7408 36.4115C50.7544 36.2681 50.7582 36.1601 50.7756 36.0543C51.0024 34.6826 51.2265 33.3103 51.4667 31.9409C51.4915 31.8003 51.5844 31.6346 51.6979 31.5527C53.4988 30.2533 55.3077 28.9651 57.1152 27.6752L34.2454 27.6574V37.7429H44.0469V43.7799C41.9869 45.1295 39.4303 45.8395 36.0921 45.8395C28.2083 45.8395 22.5973 40.0868 22.5973 32.0609V31.9189C22.5973 24.3193 28.1372 18.2822 35.3106 18.2822C40.2114 18.2822 43.7627 19.9867 47.3139 22.9699L55.4107 13.2395C52.4027 10.638 49.0908 8.64271 45.1717 7.41073C44.39 7.33963 43.6013 7.30184 42.8062 7.30184C29.4115 7.30184 18.3835 17.6213 17.2503 30.7271C18.2354 29.7406 19.2112 28.7638 20.1977 27.776C20.2078 27.9195 20.2219 28.0267 20.222 28.1339C20.2234 29.5244 20.2278 30.9148 20.2158 32.305C20.2146 32.4478 20.1499 32.6266 20.0515 32.726C18.4503 34.3421 16.8388 35.9479 15.2292 37.5555C15.2051 37.5795 15.1749 37.5972 15.1185 37.639C14.9745 37.5032 14.8238 37.3678 14.6809 37.2251C13.21 35.7555 11.7431 34.2816 10.2664 32.8181C10.0794 32.6329 10.0047 32.4466 10.0071 32.1851C10.0186 30.8294 10.0123 29.4733 10.0131 28.1174C10.0131 28.0188 10.0217 27.9202 10.0278 27.7877C11.0723 28.8391 12.1071 29.8805 13.1493 30.9295C13.8623 20.3911 20.0921 11.3427 28.9662 6.65356C16.8413 9.27119 8.46338 19.4075 8.46338 31.848V31.9899Z" fill="white"/>
  </mask>
  <g mask="url(#mask0_0_7072)">
    <path fill-rule="evenodd" clip-rule="evenodd" d="M57.1152 6.65356V55.0951H8.46338V6.65356H57.1152Z" fill="url(#paint0_linear_0_7072)"/>
  </g>
  <mask id="mask1_0_7072" style="mask-type:luminance" maskUnits="userSpaceOnUse" x="30" y="38" width="28" height="20">
    <path fill-rule="evenodd" clip-rule="evenodd" d="M35.5239 57.7008C44.544 57.7008 51.8594 54.3627 57.1152 50.0303V38.0549C52.9173 49.2262 42.3182 56.8509 30.4065 57.2955C32.0546 57.5617 33.7636 57.7008 35.5239 57.7008Z" fill="white"/>
  </mask>
  <g mask="url(#mask1_0_7072)">
    <path fill-rule="evenodd" clip-rule="evenodd" d="M57.1152 38.0549V57.7008H30.4065V38.0549H57.1152Z" fill="url(#paint1_linear_0_7072)"/>
  </g>
  <path fill-rule="evenodd" clip-rule="evenodd" d="M34.8522 69.2432C16.3233 69.2432 1.30286 54.2227 1.30286 35.6939C1.30286 17.165 16.3233 2.14453 34.8522 2.14453C53.3809 2.14453 68.4015 17.165 68.4015 35.6939C68.4015 54.2227 53.3809 69.2432 34.8522 69.2432Z" fill="#1D1D1B"/>
  <path fill-rule="evenodd" clip-rule="evenodd" d="M0 35.6938C0.000836455 16.4449 15.6033 0.842389 34.8523 0.841553C54.1011 0.842389 69.7036 16.4449 69.7045 35.6938C69.7036 54.9428 54.1011 70.5452 34.8523 70.5461C15.6033 70.5452 0.000697045 54.9428 0 35.6938ZM2.6059 35.6939C2.63801 53.5027 17.0435 67.908 34.8523 67.9402C52.6609 67.908 67.0663 53.5027 67.0987 35.6939C67.0663 17.8851 52.6609 3.47963 34.8523 3.44751C17.0435 3.47963 2.63801 17.8851 2.6059 35.6939Z" fill="url(#paint2_linear_0_7072)"/>
  <mask id="mask2_0_7072" style="mask-type:luminance" maskUnits="userSpaceOnUse" x="8" y="10" width="50" height="47">
    <path fill-rule="evenodd" clip-rule="evenodd" d="M8.46338 35.5065C8.46338 41.8962 10.5492 47.4924 14.1327 51.8186C17.3196 54.152 21.0448 55.7398 25.0766 56.411C38.2908 58.6116 50.8625 50.2429 54.133 37.5008C52.9991 38.3123 51.8761 39.1156 50.7408 39.9281C50.7544 39.7847 50.7582 39.6768 50.7756 39.5709C51.0024 38.1991 51.2265 36.8269 51.4667 35.4575C51.4915 35.3171 51.5844 35.1511 51.6979 35.0692C53.4988 33.7699 55.3077 32.4818 57.1152 31.192L34.2454 31.1739V41.2595H44.0469V47.2965C41.9869 48.646 39.4303 49.3563 36.0921 49.3563C28.2083 49.3563 22.5973 43.6034 22.5973 35.5776V35.4355C22.5973 27.8358 28.1372 21.7988 35.3106 21.7988C40.2114 21.7988 43.7627 23.5033 47.3139 26.4863L55.4107 16.7561C52.4027 14.1546 49.0908 12.1593 45.1717 10.9272C44.39 10.8561 43.6013 10.8184 42.8062 10.8184C29.4115 10.8184 18.3835 21.1379 17.2503 34.2436C18.2354 33.2571 19.2112 32.2803 20.1977 31.2925C20.2078 31.4361 20.2219 31.5434 20.222 31.6506C20.2234 33.0409 20.2278 34.4313 20.2158 35.8217C20.2146 35.9642 20.1499 36.1432 20.0515 36.2425C18.4503 37.8586 16.8388 39.4644 15.2292 41.0721C15.2051 41.0961 15.1749 41.1136 15.1185 41.1556C14.9745 41.0198 14.8238 40.8846 14.6809 40.7416C13.21 39.272 11.7431 37.7981 10.2664 36.3345C10.0794 36.1495 10.0047 35.9632 10.0071 35.7016C10.0186 34.3458 10.0123 32.9899 10.0131 31.634C10.0131 31.5353 10.0217 31.4367 10.0278 31.3043C11.0723 32.3556 12.1071 33.397 13.1493 34.446C13.8623 23.9075 20.0921 14.8592 28.9662 10.1702C16.8413 12.7878 8.46338 22.9239 8.46338 35.3644V35.5065Z" fill="white"/>
  </mask>
  <g mask="url(#mask2_0_7072)">
    <path fill-rule="evenodd" clip-rule="evenodd" d="M57.1152 10.1702V58.6115H8.46338V10.1702H57.1152Z" fill="url(#paint3_linear_0_7072)"/>
  </g>
  <mask id="mask3_0_7072" style="mask-type:luminance" maskUnits="userSpaceOnUse" x="30" y="41" width="28" height="21">
    <path fill-rule="evenodd" clip-rule="evenodd" d="M35.5239 61.2173C44.544 61.2173 51.8594 57.8792 57.1152 53.5466V41.5713C52.9173 52.7426 42.3182 60.3674 30.4065 60.812C32.0546 61.0782 33.7636 61.2173 35.5239 61.2173Z" fill="white"/>
  </mask>
  <g mask="url(#mask3_0_7072)">
    <path fill-rule="evenodd" clip-rule="evenodd" d="M57.1152 41.5713V61.2173H30.4065V41.5713H57.1152Z" fill="url(#paint4_linear_0_7072)"/>
  </g>
  <defs>
    <linearGradient id="paint0_linear_0_7072" x1="-17.4084" y1="98.3321" x2="-17.2636" y2="98.3321" gradientUnits="userSpaceOnUse">
      <stop stop-color="#1D71B8"/>
      <stop offset="4.1024e-07" stop-color="#1D71B8"/>
      <stop offset="0.0952325" stop-color="#1E80B4"/>
      <stop offset="0.374829" stop-color="#22AAAA"/>
      <stop offset="0.62856" stop-color="#24C8A2"/>
      <stop offset="0.845463" stop-color="#26DA9E"/>
      <stop offset="1" stop-color="#27E19D"/>
    </linearGradient>
    <linearGradient id="paint1_linear_0_7072" x1="-17.4084" y1="98.3159" x2="-17.2637" y2="98.3159" gradientUnits="userSpaceOnUse">
      <stop stop-color="#1D71B8"/>
      <stop offset="4.1024e-07" stop-color="#1D71B8"/>
      <stop offset="0.0952325" stop-color="#1E80B4"/>
      <stop offset="0.374829" stop-color="#22AAAA"/>
      <stop offset="0.62856" stop-color="#24C8A2"/>
      <stop offset="0.845463" stop-color="#26DA9E"/>
      <stop offset="1" stop-color="#27E19D"/>
    </linearGradient>
    <linearGradient id="paint2_linear_0_7072" x1="-17.4084" y1="98.3351" x2="-17.2636" y2="98.3351" gradientUnits="userSpaceOnUse">
      <stop stop-color="#1D71B8"/>
      <stop offset="4.1024e-07" stop-color="#1D71B8"/>
      <stop offset="1" stop-color="#27E19D"/>
    </linearGradient>
    <linearGradient id="paint3_linear_0_7072" x1="-17.4084" y1="98.3321" x2="-17.2636" y2="98.3321" gradientUnits="userSpaceOnUse">
      <stop stop-color="#1D71B8"/>
      <stop offset="4.1024e-07" stop-color="#1D71B8"/>
      <stop offset="0.0952325" stop-color="#1E80B4"/>
      <stop offset="0.374829" stop-color="#22AAAA"/>
      <stop offset="0.62856" stop-color="#24C8A2"/>
      <stop offset="0.845463" stop-color="#26DA9E"/>
      <stop offset="1" stop-color="#27E19D"/>
    </linearGradient>
    <linearGradient id="paint4_linear_0_7072" x1="-17.4084" y1="98.3159" x2="-17.2637" y2="98.3159" gradientUnits="userSpaceOnUse">
      <stop stop-color="#1D71B8"/>
      <stop offset="4.1024e-07" stop-color="#1D71B8"/>
      <stop offset="0.0952325" stop-color="#1E80B4"/>
      <stop offset="0.374829" stop-color="#22AAAA"/>
      <stop offset="0.62856" stop-color="#24C8A2"/>
      <stop offset="0.845463" stop-color="#26DA9E"/>
      <stop offset="1" stop-color="#27E19D"/>
    </linearGradient>
  </defs>
</svg>